HIERARCHY
ROOT Hips
{
	OFFSET 0.000000 0.000000 0.000000
	CHANNELS 6 Xposition Yposition Zposition Xrotation Yrotation Zrotation
	JOINT LeftUpLeg_virtual
	{
		OFFSET 0.000000 0.000000 0.000000
		CHANNELS 3 Xrotation Yrotation Zrotation
		JOINT LeftUpLeg
		{
			OFFSET 15.427100 -6.655098 0.678600
			CHANNELS 3 Xrotation Yrotation Zrotation
			JOINT LeftLeg
			{
				OFFSET 4.081073 -39.591068 13.024000
				CHANNELS 3 Xrotation Yrotation Zrotation
				JOINT LeftFoot
				{
					OFFSET -4.081074 -37.707932 -15.979700
					CHANNELS 3 Xrotation Yrotation Zrotation
					JOINT LeftToeBase
					{
						OFFSET 5.346399 -15.068900 20.645000
						CHANNELS 3 Xrotation Yrotation Zrotation
						JOINT LeftToe_End
						{
							OFFSET 2.754700 0.931300 11.300900
							CHANNELS 3 Xrotation Yrotation Zrotation
							End Site
							{
								OFFSET 0 0 0
							}
						}
					}
				}
			}
		}
	}
	JOINT RightUpLeg_virtual
	{
		OFFSET 0.000000 0.000000 0.000000
		CHANNELS 3 Xrotation Yrotation Zrotation
		JOINT RightUpLeg
		{
			OFFSET -15.569500 -6.655098 0.678600
			CHANNELS 3 Xrotation Yrotation Zrotation
			JOINT RightLeg
			{
				OFFSET -4.081825 -39.591045 13.023800
				CHANNELS 3 Xrotation Yrotation Zrotation
				JOINT RightFoot
				{
					OFFSET 4.081824 -37.707954 -15.979600
					CHANNELS 3 Xrotation Yrotation Zrotation
					JOINT RightToeBase
					{
						OFFSET -5.346400 -15.068900 20.645000
						CHANNELS 3 Xrotation Yrotation Zrotation
						JOINT RightToe_End
						{
							OFFSET -2.754700 0.931300 11.300900
							CHANNELS 3 Xrotation Yrotation Zrotation
							End Site
							{
								OFFSET 0 0 0
							}
						}
					}
				}
			}
		}
	}
	JOINT Spine_virtual
	{
		OFFSET 0.000000 0.000000 0.000000
		CHANNELS 3 Xrotation Yrotation Zrotation
		JOINT Spine
		{
			OFFSET -0.279200 12.230698 -2.892100
			CHANNELS 3 Xrotation Yrotation Zrotation
			JOINT Spine1
			{
				OFFSET -0.232667 10.192268 -1.242267
				CHANNELS 3 Xrotation Yrotation Zrotation
				JOINT Spine1_split
				{
					OFFSET -0.232667 10.192268 -1.242267
					CHANNELS 3 Xrotation Yrotation Zrotation
					JOINT Spine2
					{
						OFFSET -0.232667 10.192268 -1.242267
						CHANNELS 3 Xrotation Yrotation Zrotation
						JOINT Neck_virtual
						{
							OFFSET 0.000000 0.000000 0.000000
							CHANNELS 3 Xrotation Yrotation Zrotation
							JOINT Neck
							{
								OFFSET -0.418800 17.814194 8.416900
								CHANNELS 3 Xrotation Yrotation Zrotation
								JOINT Head
								{
									OFFSET 0.000000 7.031097 3.806800
									CHANNELS 3 Xrotation Yrotation Zrotation
									JOINT HeadTop_End
									{
										OFFSET 0.000000 24.646606 12.978600
										CHANNELS 3 Xrotation Yrotation Zrotation
										End Site
										{
											OFFSET 0 0 0
										}
									}
								}
							}
						}
						JOINT LeftShoulder_virtual
						{
							OFFSET 0.000000 0.000000 0.000000
							CHANNELS 3 Xrotation Yrotation Zrotation
							JOINT LeftShoulder
							{
								OFFSET 8.476499 7.247704 -3.868750
								CHANNELS 3 Xrotation Yrotation Zrotation
								JOINT LeftShoulder_split
								{
									OFFSET 8.476499 7.247704 -3.868750
									CHANNELS 3 Xrotation Yrotation Zrotation
									JOINT LeftArm
									{
										OFFSET 9.308998 -2.777710 0.208600
										CHANNELS 3 Xrotation Yrotation Zrotation
										JOINT LeftForeArm
										{
											OFFSET 29.972298 0.000000 0.000000
											CHANNELS 3 Xrotation Yrotation Zrotation
											JOINT LeftHand
											{
												OFFSET 26.026505 0.000000 0.000000
												CHANNELS 3 Xrotation Yrotation Zrotation
												End Site
												{
													OFFSET 0 0 0
												}
											}
										}
									}
								}
							}
						}
						JOINT RightShoulder_virtual
						{
							OFFSET 0.000000 0.000000 0.000000
							CHANNELS 3 Xrotation Yrotation Zrotation
							JOINT RightShoulder
							{
								OFFSET -7.570500 7.247704 -3.868750
								CHANNELS 3 Xrotation Yrotation Zrotation
								JOINT RightShoulder_split
								{
									OFFSET -7.570500 7.247704 -3.868750
									CHANNELS 3 Xrotation Yrotation Zrotation
									JOINT RightArm
									{
										OFFSET -9.308998 -2.777710 0.208500
										CHANNELS 3 Xrotation Yrotation Zrotation
										JOINT RightForeArm
										{
											OFFSET -29.972300 0.000000 0.000000
											CHANNELS 3 Xrotation Yrotation Zrotation
											JOINT RightHand
											{
												OFFSET -26.026505 0.000000 0.000000
												CHANNELS 3 Xrotation Yrotation Zrotation
												End Site
												{
													OFFSET 0 0 0
												}
											}
										}
									}
								}
							}
						}
					}
				}
			}
		}
	}
}
MOTION
Frames: 4
Frame Time: 0.03333333
1.182750 91.394211 0.368912 0.000000 0.000000 0.000000 -1.787331 6.669050 0.990994 -2.352280 7.927628 6.672621 18.532694 -1.230306 -3.547448 -18.288639 1.205085 -5.413038 -0.205921 0.159003 0.743417 0.000000 0.000000 0.000000 -2.059015 6.108217 0.515968 1.211990 -3.041051 -9.165095 18.632201 -5.786124 6.871821 -12.413117 -20.748450 3.534594 -1.775643 0.054824 -0.548798 0.000000 0.000000 0.000000 -1.163109 5.039552 0.095922 -1.440950 -1.734455 -2.415072 0.715595 -0.255364 1.966211 1.733959 -1.408150 -0.107081 0.000000 0.000000 0.000000 0.154342 -0.136705 1.439577 7.421129 1.655511 -0.941252 -2.918031 -0.049455 2.428658 0.000000 0.000000 0.000000 0.764493 0.287211 1.074754 6.740767 -24.931198 -5.917563 -0.479101 -2.296771 -1.790150 7.004347 5.121593 -79.710398 -2.260894 -16.348688 1.708722 0.000000 0.000000 0.000000 0.607096 0.236476 2.008086 1.981109 -5.989638 9.358662 0.861997 6.256801 -0.756618 7.114495 18.063670 72.848612 1.458215 15.074844 -0.557199 0.000000 0.000000 0.000000 
1.046191 91.363510 0.254837 0.000000 0.000000 0.000000 -1.786323 6.788621 1.003847 -2.315822 8.097999 6.673221 18.553126 -1.295962 -3.612477 -18.352423 1.157798 -5.295224 -0.206862 0.156278 0.784216 0.000000 0.000000 0.000000 -2.044882 6.150601 0.524698 1.152442 -3.064866 -9.118388 18.803376 -5.804292 6.882047 -12.477165 -20.708459 3.490986 -1.766705 0.065614 -0.576521 0.000000 0.000000 0.000000 -1.163677 4.871956 0.219154 -1.472102 -1.731342 -2.466027 0.667079 -0.276086 1.929502 1.670248 -1.401293 -0.097875 0.000000 0.000000 0.000000 0.162745 -0.129355 1.404839 7.531930 1.682404 -1.084717 -2.885154 0.097086 2.291707 0.000000 0.000000 0.000000 0.740704 0.272143 1.046237 6.789358 -24.933879 -5.951952 -0.443712 -2.109988 -2.020841 6.910547 4.847718 -79.842637 -2.278542 -16.551626 1.683827 0.000000 0.000000 0.000000 0.579456 0.230348 2.022214 1.953424 -5.989876 9.352548 0.751064 6.560165 -0.811360 7.310281 17.942323 72.803150 1.513784 15.024495 -0.626719 0.000000 0.000000 0.000000 
0.914276 91.319908 0.222210 0.000000 0.000000 0.000000 -1.840951 6.858551 1.022081 -2.216511 8.247492 6.671330 18.482145 -1.358248 -3.631885 -18.364582 1.166081 -5.210885 -0.238582 0.154363 0.806247 0.000000 0.000000 0.000000 -2.011962 6.115066 0.546377 1.085059 -2.975480 -9.146261 19.028422 -5.786509 6.913558 -12.326216 -20.629572 3.587966 -1.924573 0.085515 -0.632896 0.000000 0.000000 0.000000 -1.197962 4.847772 0.346278 -1.473271 -1.699622 -2.515711 0.584689 -0.298364 1.883421 1.577989 -1.295831 -0.004348 0.000000 0.000000 0.000000 0.156098 -0.127737 1.384635 7.555813 1.713662 -1.298129 -2.894918 0.096523 2.186447 0.000000 0.000000 0.000000 0.693652 0.270566 1.034552 6.806173 -25.004247 -6.048760 -0.494011 -1.952161 -2.247355 7.049118 4.185733 -79.753052 -2.147429 -16.715327 1.673236 0.000000 0.000000 0.000000 0.551349 0.219008 2.009221 1.892033 -5.930192 9.417427 0.819470 6.738080 -0.932481 7.268464 17.957206 72.578007 1.516092 15.069055 -0.617600 0.000000 0.000000 0.000000 
0.808415 91.281784 0.289246 0.000000 0.000000 0.000000 -1.929215 6.832944 1.030962 -2.063423 8.343339 6.673363 18.330296 -1.374157 -3.592827 -18.307608 1.217486 -5.168748 -0.268432 0.154973 0.795489 0.000000 0.000000 0.000000 -1.950933 6.064887 0.566739 1.047215 -2.824963 -9.207372 19.224980 -5.753901 6.942538 -12.057473 -20.516567 3.744757 -2.198094 0.117551 -0.700175 0.000000 0.000000 0.000000 -1.223513 4.948436 0.438677 -1.424466 -1.662677 -2.556065 0.478743 -0.328455 1.836130 1.547367 -1.264053 0.162953 0.000000 0.000000 0.000000 0.131704 -0.132110 1.385479 7.514899 1.780331 -1.527030 -2.923537 -0.043462 2.134270 0.000000 0.000000 0.000000 0.615658 0.274292 1.046410 6.797504 -25.127286 -6.147295 -0.578820 -1.783320 -2.484910 7.361674 3.316905 -79.403811 -1.907284 -16.842246 1.639414 0.000000 0.000000 0.000000 0.504157 0.191865 1.973502 1.802565 -5.811997 9.580876 1.034989 6.712516 -0.996857 7.049951 18.072549 72.259481 1.465417 15.292334 -0.543321 0.000000 0.000000 0.000000 
